<svg xmlns="http://www.w3.org/2000/svg" xmlns:xlink="http://www.w3.org/1999/xlink" version="1.1" x="0px" y="0px" viewBox="0 0 33 41.25" enable-background="new 0 0 33 33" xml:space="preserve"><path fill="#ffffff" d="M30.664,4.637H2.336C1.322,4.637,0.5,5.459,0.5,6.473v20.054c0,1.014,0.822,1.836,1.836,1.836h28.328  c1.014,0,1.836-0.822,1.836-1.836V6.473C32.5,5.459,31.678,4.637,30.664,4.637z M5.549,25.411H2.643v-2.524h2.906V25.411z   M5.549,20.312H2.643v-2.524h2.906V20.312z M5.549,15.212H2.643v-2.524h2.906V15.212z M5.549,10.113H2.643V7.589h2.906V10.113z   M25.422,25.411H7.578V7.589h17.844V25.411z M30.357,25.411h-2.906v-2.524h2.906V25.411z M30.357,20.312h-2.906v-2.524h2.906V20.312  z M30.357,15.212h-2.906v-2.524h2.906V15.212z M30.357,10.113h-2.906V7.589h2.906V10.113z"/><polygon fill="#ffffff" points="21.752,16.499 17.418,13.437 13.084,10.375 13.084,16.499 13.084,22.625 17.418,19.562 "/></svg>
