<svg xmlns="http://www.w3.org/2000/svg" data-name="Your Icon" viewBox="0 0 100 125" x="0px" y="0px"><title>self1Artboard 15</title><g><path fill="#ffffff" d="M29.97252,46.66643l5.49371-12.86008,5.83654,18.84631,2.64808-5.87872h7.44348l4.4662-15.04319,7.47771,22.16216,3.25109-7.22648H88.46878a30.60094,30.60094,0,0,0,1.8749-11.97136C89.43071,18.85741,78.18223,11.037,67.45942,11.037c-7.73782,0-14.39821,5.5298-17.5185,13.5099-3.12029-7.9801-9.78069-13.5099-17.5185-13.5099-10.7228,0-21.97129,7.8204-22.88422,23.65806a30.6009,30.6009,0,0,0,1.87486,11.97136Z"/><path fill="#ffffff" d="M94.99905,50.44668H78.66292v.03465H69.05621L62.8304,64.32021,56.09289,44.352l-1.85164,6.23689H46.41658l-5.7759,12.822L34.89446,44.85569l-2.40338,5.62564H22.11576v-.03465H5.00095v3.81491h9.94074C25.97491,73.57013,49.94092,88.963,49.94092,88.963s23.966-15.39286,34.99923-34.7014h10.0589Z"/></g></svg>
