<svg xmlns="http://www.w3.org/2000/svg" xmlns:xlink="http://www.w3.org/1999/xlink" xml:space="preserve" version="1.1" style="shape-rendering:geometricPrecision;text-rendering:geometricPrecision;image-rendering:optimizeQuality;" viewBox="0 0 254 455" x="0px" y="0px" fill-rule="evenodd" clip-rule="evenodd"><defs><style type="text/css">

    .fil0 {fill:white}
    .fil1 {fill:white;fill-rule:nonzero}

  </style></defs><g><path fill="#ffffff" class="fil0" d="M127 0c58,0 106,47 106,106 0,45 -77,168 -106,216 -29,-48 -106,-171 -106,-216 0,-59 48,-106 106,-106zm0 48c32,0 58,26 58,58 0,32 -26,57 -58,57 -32,0 -58,-25 -58,-57 0,-32 26,-58 58,-58z"/><path class="fil1" d="M189 278c-6,-2 -9,-7 -7,-13 1,-5 7,-8 12,-7 17,5 32,11 42,19 37,27 12,59 -23,72 -48,20 -124,20 -172,0 -35,-13 -60,-45 -23,-72 10,-8 25,-14 42,-19 5,-1 11,2 12,7 2,6 -1,11 -7,13 -15,4 -27,9 -35,15 -23,17 1,30 18,38 44,17 115,17 158,0 17,-8 41,-21 18,-38 -8,-6 -20,-11 -35,-15z"/></g></svg>
