<svg xmlns:dc="http://purl.org/dc/elements/1.1/" xmlns:cc="http://creativecommons.org/ns#" xmlns:rdf="http://www.w3.org/1999/02/22-rdf-syntax-ns#" xmlns:svg="http://www.w3.org/2000/svg" xmlns="http://www.w3.org/2000/svg" xmlns:sodipodi="http://sodipodi.sourceforge.net/DTD/sodipodi-0.dtd" xmlns:inkscape="http://www.inkscape.org/namespaces/inkscape" viewBox="0 0 33.866666 42.33333375" version="1.1" x="0px" y="0px"><g transform="translate(0,-338.66667)"><path style="opacity:1;fill:#ffffff;fill-opacity:1;stroke:none;stroke-width:1.05833328;stroke-linecap:round;stroke-linejoin:round;stroke-miterlimit:4;stroke-dasharray:none;stroke-dashoffset:0;stroke-opacity:1" d="M 16.933333,339.19584 A 16.404167,16.404167 0 0 0 0.52916679,355.60001 16.404167,16.404167 0 0 0 16.933333,372.00417 16.404167,16.404167 0 0 0 33.3375,355.60001 16.404167,16.404167 0 0 0 16.933333,339.19584 Z m 0,5.10408 v 5.2e-4 c 0.668883,0 1.27029,0.38801 1.769401,0.99167 0.499111,0.60364 0.923926,1.43889 1.279509,2.45566 0.29155,0.83367 0.534503,1.79188 0.720886,2.84117 0,0 0,5.2e-4 0,5.2e-4 0.03782,0.21296 0.07396,0.42824 0.10697,0.64854 0.780625,0.10777 1.388027,0.7812 1.388029,1.59008 2e-6,0.70675 -0.463546,1.31018 -1.101225,1.52342 0.01602,0.41043 0.02481,0.82687 0.02481,1.24954 0,1.44332 -0.09771,2.81891 -0.273885,4.08606 1.074142,-1.02925 1.743046,-2.47785 1.743046,-4.08606 0,-0.0396 -0.0018,-0.0789 -0.0026,-0.11834 -0.350757,0.46382 -0.726124,0.93172 -1.13068,1.40043 0.0153,-0.38525 0.02599,-0.77503 0.02739,-1.17099 0.353016,-0.43692 0.67863,-0.86999 0.980302,-1.29656 -0.0445,-0.20804 -0.100008,-0.41187 -0.166398,-0.61081 0.166697,-0.28875 0.264068,-0.62176 0.264067,-0.97669 0,-0.0455 -0.0025,-0.0903 -0.0062,-0.13487 -4.1e-4,-9e-5 -6.69e-4,-4.5e-4 -10e-4,-5.2e-4 -0.01959,-0.2827 -0.09806,-0.5498 -0.225826,-0.78807 0.385028,0.0752 0.75514,0.15899 1.11156,0.24909 -0.113113,0.21475 -0.235401,0.434 -0.367419,0.65784 -0.147267,-0.0358 -0.298458,-0.0701 -0.451136,-0.10336 0.148759,0.29146 0.27868,0.59397 0.381889,0.90899 0.386299,-0.60104 0.716225,-1.18206 0.979785,-1.72909 0.442458,-0.91835 0.701651,-1.74374 0.763261,-2.39365 0.06161,-0.64991 -0.06571,-1.09511 -0.339514,-1.36891 -0.386745,-0.38675 -1.157383,-0.4815 -2.260844,-0.17364 -0.466369,0.13012 -0.983059,0.33361 -1.532206,0.59738 -0.06859,-0.24343 -0.141261,-0.47886 -0.217041,-0.70693 0.544349,-0.25555 1.065696,-0.45615 1.553394,-0.59221 0.45912,-0.12808 0.897756,-0.20339 1.302246,-0.21239 0.674148,-0.0148 1.252712,0.15511 1.669665,0.57206 0.472971,0.47298 0.623767,1.17411 0.549837,1.95388 -0.07392,0.77977 -0.364453,1.66975 -0.83199,2.64015 -0.363299,0.75405 -0.837635,1.55674 -1.405082,2.38228 0.05311,0.33073 0.08371,0.66938 0.08371,1.01493 -1e-6,1.05852 -0.259981,2.05649 -0.717269,2.93625 0.465277,-0.11393 0.875625,-0.24216 1.360124,-0.38808 -0.0125,-0.0804 -0.02119,-0.16219 -0.02119,-0.24598 3e-6,-0.88316 0.72347,-1.60818 1.60662,-1.60818 0.473953,0 0.900486,0.21011 1.195276,0.54002 0.0106,-0.009 0.0227,-0.0163 0.03307,-0.0253 0.503128,-0.416 0.728121,-0.82097 0.728121,-1.20819 2e-6,-0.54027 -0.464585,-1.13845 -1.442289,-1.69137 -0.431323,-0.24392 -0.952757,-0.47228 -1.547709,-0.67851 0.123035,-0.21944 0.238339,-0.4359 0.345715,-0.64958 0.583433,0.20753 1.108974,0.43814 1.559595,0.69298 1.086767,0.61459 1.813844,1.3932 1.813842,2.32648 -2e-6,0.66888 -0.388021,1.26977 -0.99167,1.76888 -0.04622,0.0382 -0.0963,0.0754 -0.145211,0.11266 -3.42e-4,-10e-4 -8.51e-4,-0.002 -0.001,-0.003 0.03727,0.13523 0.05891,0.27668 0.05891,0.42323 5e-6,0.88315 -0.723466,1.60661 -1.60662,1.60661 -0.539264,0 -1.017686,-0.27052 -1.309481,-0.68161 -0.650486,0.19935 -1.366162,0.37043 -2.131136,0.5116 -0.399272,0.55122 -0.884423,1.03621 -1.435571,1.43557 -0.08601,0.46407 -0.181589,0.91136 -0.289388,1.33532 -0.215671,-0.11358 -0.436056,-0.23577 -0.660942,-0.36845 0.0351,-0.14486 0.06756,-0.29634 0.100253,-0.44649 -0.290555,0.14794 -0.593462,0.27409 -0.907438,0.37672 0.602133,0.38706 1.183774,0.71684 1.731677,0.98082 0.918355,0.44245 1.74373,0.70115 2.393652,0.76275 0.649913,0.0616 1.095626,-0.0657 1.369426,-0.33952 0.386079,-0.38608 0.476978,-1.15138 0.165364,-2.25102 -0.08996,-0.31748 -0.215939,-0.65972 -0.36897,-1.01803 0.274745,0.19497 0.591862,0.33186 0.934827,0.39326 0.04956,0.14447 0.09539,0.28698 0.134876,0.42633 0.345694,1.21992 0.315011,2.29724 -0.351917,2.96416 -0.472968,0.47296 -1.17308,0.62529 -1.952852,0.55139 -0.779775,-0.0739 -1.67026,-0.3655 -2.640666,-0.83303 -0.753871,-0.3632 -1.555796,-0.83528 -2.38125,-1.4025 -0.330843,0.053 -0.669831,0.0811 -1.015442,0.0811 -0.348495,0 -0.689761,-0.0293 -1.023193,-0.0832 -0.358888,0.24586 -0.714063,0.47559 -1.062467,0.68575 -0.06885,-0.2348 -0.135467,-0.4784 -0.198438,-0.73329 0.09627,-0.0597 0.195194,-0.12612 0.292489,-0.18862 -0.269439,-0.0887 -0.531086,-0.19449 -0.783415,-0.31678 0.299699,1.38841 0.689122,2.55392 1.136365,3.38325 0.527916,0.97894 1.095074,1.43713 1.638659,1.43713 0.387215,0 0.79065,-0.22344 1.206645,-0.72657 0.415995,-0.50312 0.816907,-1.26968 1.153418,-2.23191 0.0035,-0.01 0.0064,-0.0205 0.0098,-0.0305 0.220046,0.12338 0.437394,0.2386 0.65164,0.34623 -0.350028,0.98224 -0.765575,1.79177 -1.25212,2.38022 -0.499111,0.60365 -1.100518,0.99167 -1.769401,0.99167 -0.934781,0 -1.693459,-0.73151 -2.280481,-1.82004 -0.159874,-0.29646 -0.30921,-0.62644 -0.449585,-0.98134 0.101235,-0.2365 0.157614,-0.49595 0.157614,-0.76791 -3e-6,-0.67667 -0.347834,-1.27823 -0.872815,-1.63401 -0.06086,-0.27177 -0.118474,-0.55107 -0.1726,-0.83767 -0.60054,-0.41459 -1.126102,-0.92919 -1.55391,-1.51981 -0.456115,-0.0848 -0.895921,-0.17958 -1.313615,-0.28525 0.11195,-0.21578 0.233942,-0.43621 0.363802,-0.66043 0.138629,0.0335 0.283904,0.0634 0.427364,0.0946 -0.145437,-0.28589 -0.269391,-0.58439 -0.371036,-0.89297 -0.745651,1.1802 -1.2809332,2.29754 -1.5471929,3.22616 -0.3169677,1.10546 -0.2344252,1.88121 0.1374593,2.2531 0.2679789,0.26791 0.7005406,0.39501 1.3280846,0.34261 -0.0016,-0.0288 -0.0047,-0.0572 -0.0047,-0.0863 2e-6,-0.88315 0.724503,-1.60765 1.607654,-1.60765 0.539897,0 1.019335,0.27138 1.311031,0.68368 6.9e-4,10e-4 0.0014,0.002 0.0021,0.003 0.02167,0.0307 0.04197,0.0628 0.0615,0.0951 3.42e-4,3.1e-4 7.24e-4,4.8e-4 10e-4,0.001 0.0046,0.008 0.0089,0.0147 0.01344,0.0227 0,0 0,5.2e-4 0,5.2e-4 0.0189,0.0326 0.03711,0.0657 0.05374,0.0997 0.0012,0.002 0.0024,0.004 0.0036,0.007 0.0018,0.003 0.0033,0.008 0.0052,0.0119 7.99e-4,0.002 0.0018,0.003 0.0026,0.005 0.09689,0.20644 0.152444,0.43515 0.152445,0.67696 3e-6,0.88315 -0.722951,1.60662 -1.606104,1.60662 -0.593352,0 -1.114108,-0.32766 -1.392679,-0.80977 -0.03364,0.004 -0.06857,0.0104 -0.101803,0.0134 -0.779766,0.0739 -1.4803947,-0.0784 -1.9533691,-0.55138 -0.6650664,-0.66504 -0.6726447,-1.7475 -0.322461,-2.96881 0.340446,-1.18736 1.0425184,-2.56522 2.0127971,-3.99614 -0.04391,-0.27115 -0.07259,-0.54753 -0.08113,-0.82889 0.257524,-0.0145 0.502417,-0.0786 0.72502,-0.18397 0.0024,1.12993 0.335489,2.1802 0.906405,3.06183 0.513983,0.0883 1.051224,0.16332 1.608687,0.22272 0.2803,0.27844 0.561806,0.54862 0.844393,0.80977 -0.616007,-0.0454 -1.211811,-0.10955 -1.785937,-0.18965 0.274791,0.28652 0.578801,0.54424 0.908471,0.76791 0.06306,0.0181 0.120456,0.0538 0.164848,0.10749 0.548584,0.34495 1.16079,0.5981 1.815393,0.73846 0.09901,-0.0698 0.196796,-0.13494 0.296623,-0.20774 0.130635,0.10661 0.260885,0.20826 0.39119,0.31109 0.167198,0.0148 0.335842,0.0238 0.506946,0.0238 0.03832,0 0.07607,-0.002 0.114205,-0.003 -1.018759,-0.77055 -2.058477,-1.67452 -3.076815,-2.69286 -1.086295,-1.08628 -2.043881,-2.19714 -2.846337,-3.28042 -0.207914,0.0987 -0.43909,0.15555 -0.683163,0.15555 -0.883153,0 -1.6061062,-0.72452 -1.6061034,-1.60766 1.2e-6,-0.49623 0.2287201,-0.94177 0.585494,-1.23713 -0.06806,-0.13115 -0.1340326,-0.26091 -0.1958727,-0.38927 -0.4675331,-0.9704 -0.7580714,-1.86038 -0.8319905,-2.64014 -0.073919,-0.77977 0.077385,-1.4804 0.550354,-1.95337 0.4162694,-0.41627 0.9918672,-0.58678 1.6613976,-0.57258 0.401718,0.009 0.837295,0.0838 1.292944,0.21239 1.181785,0.3335 2.555832,1.04038 4.016292,2.04846 0.332399,-0.0536 0.672205,-0.0847 1.019576,-0.0847 0.382416,0 0.722461,0.014 1.034562,0.0455 0.38002,-0.25981 0.754697,-0.50198 1.122413,-0.71985 0.07224,0.23183 0.141872,0.47362 0.207222,0.72554 -0.104171,0.0632 -0.210758,0.13215 -0.31626,0.19895 0.290937,0.0967 0.563999,0.22828 0.834058,0.40204 -0.149965,-0.68381 -0.325095,-1.31507 -0.521932,-1.87792 -0.336511,-0.96223 -0.736905,-1.72774 -1.152901,-2.23087 -0.415994,-0.50312 -0.819947,-0.72812 -1.207162,-0.72812 -0.550948,0 -1.135098,0.46146 -1.676383,1.44435 -0.238483,0.43306 -0.459921,0.96157 -0.660942,1.56218 -0.220774,-0.12546 -0.438044,-0.24206 -0.65319,-0.3514 0.201976,-0.58495 0.426359,-1.11087 0.674894,-1.56217 0.60226,-1.09361 1.377015,-1.8216 2.315621,-1.8216 z m -6.321578,3.46749 c -0.52319,-0.0137 -0.9100967,0.11429 -1.1534176,0.3576 -0.2738001,0.2738 -0.4016459,0.71847 -0.3400309,1.36839 0.06161,0.64992 0.320804,1.47531 0.7632609,2.39365 0.060229,0.12501 0.1243376,0.25252 0.1912026,0.38086 0.118636,-0.0282 0.241546,-0.0444 0.368453,-0.0444 0.88315,0 1.608169,0.72295 1.608171,1.6061 1e-6,0.37623 -0.13266,0.72345 -0.351917,0.99839 0.782103,1.05768 1.720697,2.15065 2.78846,3.21841 1.206981,1.20697 2.447138,2.24968 3.631303,3.08715 0.684333,-0.14524 1.321938,-0.41465 1.889808,-0.78238 0.245471,-1.4295 0.385506,-3.04354 0.385506,-4.75113 0,-0.40019 -0.0084,-0.79454 -0.02325,-1.18339 -0.77881,-0.10941 -1.384414,-0.78146 -1.384411,-1.58905 1e-6,-0.70476 0.461153,-1.30705 1.096057,-1.52188 -0.02326,-0.15337 -0.04778,-0.30478 -0.07338,-0.45423 -0.61158,-0.39631 -1.304419,-0.67681 -2.04897,-0.81287 a 0.36488166,0.36487954 0 0 1 -0.05684,-0.0109 c -0.314869,-0.0542 -0.637851,-0.0853 -0.968417,-0.0853 -0.331871,0 -0.655485,0.0317 -0.971517,0.0863 -0.04426,0.0178 -0.09285,0.0268 -0.143143,0.0238 -0.713129,0.14214 -1.376239,0.41904 -1.964738,0.8015 -0.03807,0.0419 -0.08415,0.0725 -0.134876,0.0904 -0.670981,0.46393 -1.237379,1.06755 -1.654679,1.77146 -0.142264,-0.20563 -0.321965,-0.38351 -0.529684,-0.52296 0.449342,-0.70959 1.035629,-1.32276 1.719792,-1.80713 0.08141,-0.4416 0.171157,-0.86665 0.270268,-1.27072 0.215679,0.11492 0.43622,0.23967 0.661458,0.37362 -0.02991,0.12727 -0.05745,0.25898 -0.08578,0.39016 0.27233,-0.13549 0.554898,-0.2523 0.847494,-0.3483 -1.205355,-0.77706 -2.325676,-1.31958 -3.249414,-1.58027 -0.410048,-0.11577 -0.772841,-0.17493 -1.086756,-0.18293 z m 9.979753,4.18114 c -0.489137,0 -0.876948,0.38988 -0.876949,0.87902 -2e-6,0.48913 0.387811,0.87694 0.876949,0.87694 0.489137,0 0.878501,-0.38781 0.878499,-0.87694 -10e-7,-0.48914 -0.389364,-0.87902 -0.878499,-0.87902 z m -11.7321004,0.71468 c -0.1978336,0.26693 -0.3303621,0.5838 -0.3725871,0.92811 -0.2558301,0.10815 -0.4949173,0.21981 -0.7069336,0.33642 -0.9721386,0.53466 -1.4180026,1.10859 -1.4180013,1.67225 1e-6,0.38722 0.2234444,0.79219 0.7265707,1.20819 0.5031264,0.41599 1.2701833,0.81588 2.2324218,1.15239 0.01517,0.005 0.031759,0.009 0.047026,0.015 -0.122426,0.22049 -0.2349534,0.4381 -0.342098,0.65371 -0.9918118,-0.35161 -1.8087122,-0.76982 -2.4014038,-1.25987 -0.6036519,-0.4991 -0.9916691,-1.10053 -0.9916707,-1.7694 -2.2e-6,-0.9382 0.7106359,-1.71388 1.7962727,-2.31097 0.416078,-0.22885 0.8956771,-0.43745 1.4304037,-0.62581 z m 1.5818154,0.28939 c -0.4891355,0 -0.8769478,0.38781 -0.8769489,0.87695 -1.7e-6,0.48913 0.3878113,0.8785 0.8769489,0.8785 0.489138,0 0.878501,-0.38937 0.878499,-0.8785 0,-0.48914 -0.389363,-0.87695 -0.878499,-0.87695 z m 15.107088,4.07107 c -0.489135,0 -0.876949,0.38937 -0.876949,0.8785 -2e-6,0.48914 0.38781,0.87747 0.876949,0.87747 0.489137,0 0.878502,-0.38833 0.878499,-0.87747 -1e-6,-0.48913 -0.389363,-0.8785 -0.878499,-0.8785 z m -5.577437,0.41393 c -0.02378,0.38901 -0.05555,0.76995 -0.09353,1.14257 -0.682328,0.68118 -1.374217,1.30748 -2.062924,1.8805 -0.19578,-0.14643 -0.392708,-0.29859 -0.590661,-0.45578 0.718113,-0.59004 1.442977,-1.24506 2.156457,-1.95854 0.202085,-0.20208 0.397978,-0.40524 0.590662,-0.60875 z m -7.580933,5.01468 c -0.489136,-10e-6 -0.879014,0.38988 -0.879016,0.87902 -1e-6,0.48913 0.389878,0.87746 0.879016,0.87746 0.489138,0 0.876952,-0.38833 0.876949,-0.87746 0,-0.48914 -0.387813,-0.87902 -0.876949,-0.87902 z"/></g><text x="0" y="48.866667" fill="#ffffff" font-size="5px" font-weight="bold" font-family="'Helvetica Neue', Helvetica, Arial-Unicode, Arial, Sans-serif">Created by Nine One</text><text x="0" y="53.866667" fill="#ffffff" font-size="5px" font-weight="bold" font-family="'Helvetica Neue', Helvetica, Arial-Unicode, Arial, Sans-serif">from the Noun Project</text></svg>
